<svg width="145.128" height="30.667" overflow="visible" style="display: block;" viewBox="0 0 145.128 30.6672" fill="none" xmlns="http://www.w3.org/2000/svg">
<g id="Group 481512">
<path id="Vector" d="M89.5236 8.07901V1.76106H87.2446V0.670791H93.2052V1.76106H90.9261V8.07901H89.5236Z" fill="var(--fill-0, black)"/>
<path id="Vector_2" d="M93.9972 8.07926V0.447396H95.4289V3.63433C95.6042 3.35477 95.8672 3.10317 96.1886 2.96339C96.51 2.79566 96.8606 2.71179 97.2697 2.71179C97.9417 2.71179 98.4677 2.90748 98.8475 3.32682C99.2274 3.74615 99.4027 4.33322 99.4027 5.11597V8.07926H98.0002V5.22779C98.0002 4.78051 97.9125 4.41708 97.708 4.19344C97.5327 3.94184 97.2113 3.83002 96.8022 3.83002C96.3931 3.83002 96.0717 3.96979 95.8088 4.22139C95.5458 4.50095 95.4289 4.86437 95.4289 5.33962V8.05131H93.9972V8.07926Z" fill="var(--fill-0, black)"/>
<path id="Vector_3" d="M103.203 3.80185C102.852 3.80185 102.56 3.88572 102.297 4.0814C102.034 4.27709 101.859 4.55665 101.8 4.94802H104.547C104.518 4.61256 104.401 4.333 104.138 4.10936C103.846 3.91367 103.553 3.80185 103.203 3.80185ZM103.174 8.21882C102.618 8.21882 102.122 8.107 101.713 7.88336C101.274 7.65971 100.953 7.3522 100.719 6.93287C100.485 6.51354 100.339 6.03829 100.339 5.50714C100.339 4.97598 100.456 4.47278 100.69 4.05345C100.924 3.63411 101.274 3.29865 101.683 3.075C102.122 2.85136 102.618 2.71158 103.174 2.71158C103.7 2.71158 104.196 2.8234 104.605 3.04705C105.014 3.27069 105.336 3.5782 105.569 3.96958C105.803 4.36096 105.92 4.80825 105.92 5.28349C105.92 5.36736 105.92 5.45122 105.92 5.53509C105.92 5.61896 105.92 5.70283 105.891 5.78669H101.713C101.742 6.20603 101.888 6.51354 102.151 6.76514C102.414 6.98878 102.735 7.1006 103.144 7.1006C103.437 7.1006 103.67 7.04469 103.875 6.90491C104.079 6.79309 104.225 6.62536 104.313 6.42967H105.745C105.628 6.76513 105.482 7.07265 105.219 7.32425C104.985 7.6038 104.693 7.79949 104.342 7.96722C104.021 8.13496 103.612 8.21882 103.174 8.21882Z" fill="var(--fill-0, black)"/>
<path id="Vector_4" d="M112.755 8.21891C112.024 8.21891 111.382 8.05117 110.826 7.74366C110.271 7.43615 109.862 6.98886 109.541 6.4018C109.249 5.84269 109.073 5.17175 109.073 4.41695C109.073 3.66215 109.219 2.99122 109.541 2.40415C109.862 1.81709 110.3 1.3698 110.885 1.03433C111.469 0.698865 112.141 0.531131 112.959 0.531131C113.865 0.531131 114.625 0.726821 115.209 1.14615C115.794 1.56549 116.203 2.1246 116.378 2.8794H114.8C114.683 2.54393 114.479 2.26438 114.157 2.06869C113.836 1.873 113.456 1.78913 112.959 1.78913C112.17 1.78913 111.586 2.01277 111.177 2.48802C110.768 2.96326 110.534 3.60624 110.534 4.41695C110.534 5.22766 110.739 5.87064 111.148 6.31793C111.557 6.76522 112.141 6.98886 112.842 6.98886C113.544 6.98886 114.07 6.82113 114.42 6.45771C114.771 6.09428 115.005 5.61904 115.063 5.03197H113.105V4.02557H116.495V8.10708H115.18L115.063 7.12864C114.8 7.49206 114.508 7.74366 114.128 7.93935C113.807 8.13504 113.339 8.21891 112.755 8.21891Z" fill="var(--fill-0, black)"/>
<path id="Vector_5" d="M119.094 0.447396H117.663V8.07926H119.094V0.447396Z" fill="var(--fill-0, black)"/>
<path id="Vector_6" d="M122.954 7.04485C123.334 7.04485 123.655 6.90507 123.918 6.65347C124.181 6.40187 124.327 5.98254 124.327 5.47934C124.327 4.94818 124.181 4.55681 123.918 4.30521C123.655 4.05361 123.334 3.91383 122.954 3.91383C122.574 3.91383 122.252 4.05361 121.989 4.30521C121.727 4.55681 121.58 4.97614 121.58 5.47934C121.58 6.01049 121.727 6.40187 121.989 6.65347C122.252 6.90507 122.574 7.04485 122.954 7.04485ZM122.954 8.21898C122.428 8.21898 121.931 8.10716 121.522 7.88351C121.084 7.65987 120.762 7.3244 120.529 6.90507C120.295 6.48574 120.149 6.01049 120.149 5.47934C120.149 4.94818 120.266 4.44498 120.529 4.05361C120.792 3.63427 121.113 3.32676 121.551 3.07516C121.989 2.85152 122.457 2.73969 122.983 2.73969C123.509 2.73969 123.976 2.85152 124.415 3.07516C124.853 3.2988 125.174 3.63427 125.437 4.05361C125.671 4.47294 125.817 4.94818 125.817 5.47934C125.817 6.01049 125.7 6.51369 125.437 6.90507C125.204 7.3244 124.853 7.63191 124.415 7.88351C123.947 8.10716 123.48 8.21898 122.954 8.21898Z" fill="var(--fill-0, black)"/>
<path id="Vector_7" d="M129.76 7.0449C130.198 7.0449 130.578 6.90513 130.87 6.59762C131.162 6.31806 131.309 5.92668 131.309 5.47939C131.309 5.03211 131.162 4.64073 130.87 4.33321C130.578 4.0257 130.198 3.88593 129.76 3.88593C129.292 3.88593 128.942 4.0257 128.65 4.33321C128.357 4.61277 128.211 5.00415 128.211 5.45144C128.211 5.89873 128.357 6.2901 128.65 6.56966C128.942 6.87717 129.292 7.0449 129.76 7.0449ZM130.052 8.21904C129.643 8.21904 129.263 8.13517 128.971 7.99539C128.65 7.85561 128.416 7.63197 128.211 7.38037L128.065 8.10721H126.809V0.447396H128.241V3.57842C128.416 3.35477 128.65 3.13113 128.942 2.96339C129.234 2.79566 129.614 2.71179 130.081 2.71179C130.607 2.71179 131.046 2.82362 131.455 3.07522C131.864 3.32682 132.185 3.63433 132.419 4.05366C132.653 4.47299 132.769 4.94824 132.769 5.47939C132.769 6.01055 132.653 6.48579 132.419 6.90513C132.185 7.32446 131.864 7.63197 131.455 7.88357C131.046 8.10721 130.578 8.21904 130.052 8.21904Z" fill="var(--fill-0, black)"/>
<path id="Vector_8" d="M136.011 7.15667C136.42 7.15667 136.742 7.01689 136.946 6.76529C137.18 6.51369 137.326 6.20618 137.385 5.81481H136.187C135.807 5.81481 135.544 5.87072 135.368 6.01049C135.193 6.15027 135.135 6.29005 135.135 6.48574C135.135 6.68143 135.222 6.84916 135.368 6.96098C135.544 7.10076 135.748 7.15667 136.011 7.15667ZM135.69 8.21898C135.222 8.21898 134.842 8.13511 134.521 7.99534C134.229 7.85556 133.995 7.65987 133.849 7.40827C133.703 7.15667 133.615 6.90507 133.615 6.62552C133.615 6.15027 133.82 5.73094 134.2 5.45138C134.609 5.14387 135.193 5.00409 135.982 5.00409H137.385V4.86432C137.385 4.50089 137.268 4.24929 137.063 4.08156C136.859 3.91383 136.596 3.82996 136.274 3.82996C135.982 3.82996 135.748 3.88587 135.515 4.02565C135.281 4.16543 135.164 4.36112 135.105 4.61272H133.732C133.761 4.22134 133.907 3.88587 134.141 3.60632C134.375 3.32676 134.667 3.10312 135.047 2.96334C135.427 2.82356 135.836 2.73969 136.274 2.73969C137.063 2.73969 137.677 2.93538 138.115 3.2988C138.553 3.66223 138.787 4.19338 138.787 4.89227V8.13512H137.589L137.443 7.29645C137.268 7.576 137.063 7.79965 136.771 7.99534C136.479 8.19103 136.157 8.21898 135.69 8.21898Z" fill="var(--fill-0, black)"/>
<path id="Vector_9" d="M141.418 0.447396H139.986V8.07926H141.418V0.447396Z" fill="var(--fill-0, black)"/>
<path id="Vector_10" d="M89.2913 19.1215L87.2168 11.7133H88.7361L90.1386 17.6119L91.7749 11.7133H93.3527L94.9305 17.6119L96.333 11.7133H97.8523L95.7486 19.1215H94.0831L92.5346 13.6422L90.9567 19.1215H89.2913Z" fill="var(--fill-0, black)"/>
<path id="Vector_11" d="M100.686 18.0872C101.066 18.0872 101.387 17.9474 101.65 17.6958C101.913 17.4163 102.059 17.0249 102.059 16.5217C102.059 15.9905 101.913 15.5992 101.65 15.3476C101.387 15.096 101.066 14.9562 100.686 14.9562C100.306 14.9562 99.9848 15.096 99.7219 15.3476C99.4589 15.5992 99.3128 16.0185 99.3128 16.5217C99.3128 17.0528 99.4589 17.4442 99.7219 17.6958C99.9848 17.9474 100.306 18.0872 100.686 18.0872ZM100.686 19.2613C100.16 19.2613 99.6634 19.1495 99.2544 18.8979C98.8161 18.6743 98.4947 18.3388 98.2609 17.9195C98.0272 17.5001 97.8811 17.0249 97.8811 16.4937C97.8811 15.9626 97.998 15.4594 98.2609 15.068C98.5239 14.6487 98.8453 14.3412 99.2836 14.0896C99.7219 13.8659 100.189 13.7541 100.715 13.7541C101.241 13.7541 101.709 13.8659 102.147 14.0896C102.585 14.3132 102.907 14.6487 103.14 15.068C103.374 15.4873 103.52 15.9626 103.52 16.4937C103.52 17.0249 103.403 17.5281 103.14 17.9195C102.907 18.3388 102.556 18.6463 102.118 18.8979C101.68 19.1495 101.212 19.2613 100.686 19.2613Z" fill="var(--fill-0, black)"/>
<path id="Vector_12" d="M104.541 19.1217V13.8661H105.797L105.943 14.8445C106.148 14.509 106.411 14.2295 106.761 14.0338C107.112 13.8381 107.521 13.7263 107.988 13.7263V15.152H107.579C107.258 15.152 106.995 15.2079 106.761 15.2918C106.528 15.3757 106.323 15.5434 106.177 15.767C106.031 15.9907 105.972 16.2982 105.972 16.7175V19.1217H104.541Z" fill="var(--fill-0, black)"/>
<path id="Vector_13" d="M108.698 19.1218V11.4899H110.13V16.0187L112.088 13.8661H113.753L111.503 16.2703L114.133 19.1218H112.351L110.13 16.4939V19.1218H108.698Z" fill="var(--fill-0, black)"/>
<path id="Vector_14" d="M116.787 19.2615C116.29 19.2615 115.881 19.1776 115.501 19.0378C115.121 18.8981 114.829 18.6744 114.624 18.3949C114.391 18.1153 114.274 17.8078 114.215 17.4723H115.647C115.705 17.668 115.822 17.8637 115.998 18.0035C116.202 18.1433 116.436 18.2271 116.757 18.2271C117.079 18.2271 117.283 18.1712 117.429 18.0594C117.575 17.9476 117.634 17.8078 117.634 17.6401C117.634 17.4164 117.517 17.2487 117.312 17.1928C117.108 17.1089 116.816 17.025 116.436 16.9412C116.202 16.8853 115.968 16.8294 115.705 16.7734C115.472 16.7175 115.238 16.6057 115.033 16.4939C114.829 16.3821 114.654 16.2423 114.537 16.0746C114.42 15.9068 114.361 15.6832 114.361 15.4316C114.361 14.9563 114.566 14.565 114.946 14.2574C115.326 13.9499 115.881 13.7822 116.582 13.7822C117.225 13.7822 117.751 13.922 118.131 14.2295C118.51 14.509 118.744 14.9284 118.832 15.4316H117.488C117.4 15.0402 117.108 14.8445 116.582 14.8445C116.319 14.8445 116.114 14.9004 115.968 14.9843C115.822 15.0961 115.764 15.2079 115.764 15.3477C115.764 15.5154 115.881 15.6273 116.085 15.7111C116.29 15.795 116.582 15.8789 116.933 15.9627C117.312 16.0466 117.663 16.1305 117.984 16.2423C118.306 16.3541 118.569 16.4939 118.744 16.6896C118.949 16.8853 119.036 17.1928 119.036 17.5562C119.036 17.8917 118.949 18.1712 118.773 18.4228C118.598 18.6744 118.335 18.8981 117.984 19.0378C117.663 19.1776 117.254 19.2615 116.787 19.2615Z" fill="var(--fill-0, black)"/>
<path id="Vector_15" d="M123.067 18.0592C123.505 18.0592 123.885 17.9195 124.177 17.612C124.47 17.3324 124.616 16.941 124.616 16.4937C124.616 16.0464 124.47 15.6551 124.177 15.3476C123.885 15.04 123.505 14.9003 123.067 14.9003C122.6 14.9003 122.249 15.04 121.957 15.3476C121.665 15.6551 121.519 16.0185 121.519 16.4658C121.519 16.9131 121.665 17.3044 121.957 17.584C122.22 17.9195 122.6 18.0592 123.067 18.0592ZM120.116 21.4698V13.8659H121.372L121.519 14.6207C121.694 14.3971 121.928 14.1734 122.22 14.0057C122.512 13.838 122.892 13.7541 123.359 13.7541C123.885 13.7541 124.324 13.8659 124.733 14.1175C125.142 14.3691 125.463 14.6766 125.697 15.096C125.931 15.5153 126.047 15.9905 126.047 16.5217C126.047 17.0528 125.931 17.5281 125.697 17.9474C125.463 18.3668 125.142 18.6743 124.733 18.9259C124.324 19.1495 123.856 19.2893 123.359 19.2893C122.95 19.2893 122.57 19.2054 122.278 19.0656C121.957 18.9259 121.723 18.7022 121.519 18.4506V21.4978H120.116V21.4698Z" fill="var(--fill-0, black)"/>
<path id="Vector_16" d="M129.323 18.1992C129.732 18.1992 130.053 18.0594 130.258 17.8078C130.491 17.5562 130.638 17.2487 130.696 16.8573H129.498C129.118 16.8573 128.855 16.9132 128.68 17.053C128.505 17.1928 128.446 17.3326 128.446 17.5282C128.446 17.7239 128.534 17.8917 128.68 18.0035C128.826 18.1433 129.06 18.1992 129.323 18.1992ZM129.001 19.2615C128.534 19.2615 128.154 19.1776 127.833 19.0378C127.54 18.8981 127.307 18.7024 127.16 18.4508C127.014 18.1992 126.927 17.9476 126.927 17.668C126.927 17.1928 127.131 16.7734 127.511 16.4939C127.92 16.1864 128.505 16.0466 129.293 16.0466H130.696V15.9068C130.696 15.5434 130.579 15.2918 130.375 15.1241C130.17 14.9563 129.907 14.8725 129.586 14.8725C129.293 14.8725 129.06 14.9284 128.826 15.0682C128.592 15.2079 128.475 15.4036 128.417 15.6552H127.073C127.102 15.2638 127.248 14.9284 127.482 14.6488C127.716 14.3693 128.008 14.1456 128.388 14.0058C128.768 13.8661 129.177 13.7822 129.615 13.7822C130.404 13.7822 131.017 13.9779 131.456 14.3413C131.894 14.7047 132.128 15.2359 132.128 15.9348V19.1776H130.93L130.784 18.339C130.608 18.6185 130.404 18.8422 130.112 19.0378C129.819 19.2335 129.469 19.2615 129.001 19.2615Z" fill="var(--fill-0, black)"/>
<path id="Vector_17" d="M135.955 19.2613C135.4 19.2613 134.903 19.1495 134.465 18.8979C134.026 18.6743 133.705 18.3388 133.442 17.9195C133.208 17.5001 133.062 17.0249 133.062 16.4937C133.062 15.9626 133.179 15.4873 133.442 15.068C133.676 14.6487 134.026 14.3132 134.465 14.0896C134.903 13.8659 135.4 13.7541 135.955 13.7541C136.656 13.7541 137.24 13.9218 137.737 14.2852C138.205 14.6487 138.526 15.1239 138.643 15.7389H137.153C137.065 15.4873 136.919 15.2916 136.714 15.1519C136.51 15.0121 136.247 14.9282 135.955 14.9282C135.575 14.9282 135.224 15.068 134.961 15.3476C134.698 15.6271 134.552 16.0185 134.552 16.5217C134.552 17.0249 134.698 17.4163 134.961 17.6958C135.224 17.9754 135.575 18.1152 135.955 18.1152C136.247 18.1152 136.51 18.0313 136.714 17.8915C136.919 17.7517 137.065 17.556 137.153 17.2765H138.643C138.497 17.8636 138.205 18.3388 137.737 18.7022C137.27 19.0656 136.656 19.2613 135.955 19.2613Z" fill="var(--fill-0, black)"/>
<path id="Vector_18" d="M142.381 14.8444C142.031 14.8444 141.738 14.9282 141.475 15.1239C141.212 15.3196 141.037 15.5992 140.979 15.9905H143.725C143.696 15.6551 143.579 15.3755 143.316 15.1519C143.053 14.9562 142.732 14.8444 142.381 14.8444ZM142.352 19.2613C141.797 19.2613 141.3 19.1495 140.891 18.9259C140.453 18.7022 140.131 18.3947 139.898 17.9754C139.664 17.556 139.547 17.0808 139.547 16.5496C139.547 16.0185 139.664 15.5153 139.898 15.096C140.131 14.6766 140.482 14.3412 140.891 14.1175C141.329 13.8939 141.826 13.7541 142.381 13.7541C142.907 13.7541 143.404 13.8659 143.813 14.0896C144.222 14.3132 144.543 14.6207 144.777 15.0121C145.011 15.4035 145.128 15.8508 145.128 16.326C145.128 16.4099 145.128 16.4937 145.128 16.5776C145.128 16.6615 145.128 16.7453 145.098 16.8292H140.92C140.949 17.2485 141.096 17.556 141.358 17.8076C141.621 18.0313 141.943 18.1431 142.352 18.1431C142.644 18.1431 142.878 18.0872 143.082 17.9474C143.287 17.8356 143.433 17.6679 143.521 17.4722H144.952C144.836 17.8076 144.689 18.1152 144.426 18.3668C144.163 18.6184 143.901 18.842 143.55 19.0097C143.199 19.1775 142.819 19.2613 142.352 19.2613Z" fill="var(--fill-0, black)"/>
<path id="Vector_19" d="M87.7137 30.164V22.7558H89.1162V29.1017H92.564V30.164H87.7137Z" fill="var(--fill-0, black)"/>
<path id="Vector_20" d="M95.9838 25.8869C95.6332 25.8869 95.341 25.9707 95.078 26.1664C94.8151 26.3621 94.6397 26.6417 94.5813 27.033H97.3279C97.2986 26.6976 97.1818 26.418 96.9188 26.1944C96.6558 25.9987 96.3636 25.8869 95.9838 25.8869ZM95.9838 30.3038C95.4286 30.3038 94.9319 30.192 94.5229 29.9684C94.0846 29.7447 93.7632 29.4372 93.5294 29.0179C93.2957 28.5986 93.1496 28.1233 93.1496 27.5922C93.1496 27.061 93.2665 26.5578 93.5002 26.1385C93.734 25.7191 94.0846 25.3837 94.4936 25.16C94.9319 24.9364 95.4286 24.7966 95.9838 24.7966C96.5097 24.7966 97.0064 24.9084 97.4155 25.1321C97.8246 25.3557 98.146 25.6632 98.3797 26.0546C98.6135 26.446 98.7303 26.8933 98.7303 27.3685C98.7303 27.4524 98.7303 27.5362 98.7303 27.6201C98.7303 27.704 98.7304 27.7878 98.7011 27.8717H94.5229C94.5521 28.291 94.6982 28.5986 94.9611 28.8222C95.2241 29.0458 95.5455 29.1856 95.9546 29.1856C96.2468 29.1856 96.4805 29.1297 96.685 28.9899C96.8896 28.8781 97.0357 28.7104 97.1233 28.5147H98.555C98.4382 28.8502 98.2921 29.1577 98.0291 29.4093C97.7954 29.6888 97.5032 29.8845 97.1525 30.0522C96.8311 30.22 96.4221 30.3038 95.9838 30.3038Z" fill="var(--fill-0, black)"/>
<path id="Vector_21" d="M101.915 29.2417C102.325 29.2417 102.646 29.1019 102.85 28.8503C103.084 28.5987 103.23 28.2912 103.289 27.8998H102.091C101.711 27.8998 101.448 27.9557 101.273 28.0955C101.097 28.2353 101.039 28.3751 101.039 28.5708C101.039 28.7664 101.127 28.9342 101.273 29.046C101.448 29.1858 101.652 29.2417 101.915 29.2417ZM101.594 30.304C101.127 30.304 100.747 30.2201 100.425 30.0804C100.133 29.9406 99.8994 29.7449 99.7533 29.4933C99.6072 29.2417 99.5195 28.9901 99.5195 28.7105C99.5195 28.2353 99.7241 27.816 100.104 27.5364C100.513 27.2289 101.097 27.0891 101.886 27.0891H103.289V26.9493C103.289 26.5859 103.172 26.3343 102.967 26.1666C102.763 25.9988 102.5 25.915 102.178 25.915C101.886 25.915 101.653 25.9709 101.419 26.1107C101.214 26.2504 101.068 26.4461 101.01 26.6977H99.6364C99.6656 26.3064 99.8117 25.9709 100.045 25.6913C100.279 25.4118 100.571 25.1881 100.951 25.0484C101.331 24.9086 101.74 24.8247 102.178 24.8247C102.967 24.8247 103.581 25.0204 104.019 25.3838C104.457 25.7472 104.691 26.2784 104.691 26.9773V30.2201H103.493L103.347 29.3815C103.172 29.661 102.967 29.8847 102.675 30.0804C102.441 30.2201 102.062 30.304 101.594 30.304Z" fill="var(--fill-0, black)"/>
<path id="Vector_22" d="M108.699 29.1017C109.166 29.1017 109.517 28.9619 109.809 28.6544C110.101 28.3469 110.247 27.9834 110.247 27.5362C110.247 27.0889 110.101 26.6975 109.809 26.4179C109.517 26.1384 109.137 25.9706 108.699 25.9706C108.26 25.9706 107.881 26.1104 107.588 26.4179C107.296 26.6975 107.15 27.0889 107.15 27.5362C107.15 27.9834 107.296 28.3748 107.588 28.6823C107.881 28.9619 108.26 29.1017 108.699 29.1017ZM108.407 30.3038C107.881 30.3038 107.442 30.1919 107.033 29.9403C106.624 29.6887 106.303 29.3812 106.069 28.9619C105.835 28.5426 105.718 28.0673 105.718 27.5362C105.718 27.005 105.835 26.5298 106.069 26.1104C106.303 25.6911 106.624 25.3836 107.033 25.132C107.442 24.9083 107.91 24.7686 108.407 24.7686C108.816 24.7686 109.195 24.8524 109.488 24.9922C109.809 25.132 110.043 25.3556 110.247 25.6072V22.5321H111.679V30.164H110.423L110.276 29.4092C110.101 29.6328 109.867 29.8565 109.575 30.0242C109.254 30.2199 108.874 30.3038 108.407 30.3038Z" fill="var(--fill-0, black)"/>
<path id="Vector_23" d="M115.562 25.8869C115.211 25.8869 114.919 25.9707 114.656 26.1664C114.393 26.3621 114.218 26.6417 114.159 27.033H116.906C116.876 26.6976 116.76 26.418 116.497 26.1944C116.234 25.9987 115.912 25.8869 115.562 25.8869ZM115.562 30.3038C115.006 30.3038 114.51 30.192 114.101 29.9684C113.662 29.7447 113.341 29.4372 113.107 29.0179C112.873 28.5986 112.727 28.1233 112.727 27.5922C112.727 27.061 112.844 26.5578 113.078 26.1385C113.312 25.7191 113.662 25.3837 114.071 25.16C114.51 24.9364 115.006 24.7966 115.562 24.7966C116.088 24.7966 116.584 24.9084 116.993 25.1321C117.402 25.3557 117.724 25.6632 117.958 26.0546C118.191 26.446 118.308 26.8933 118.308 27.3685C118.308 27.4524 118.308 27.5362 118.308 27.6201C118.308 27.704 118.308 27.7878 118.279 27.8717H114.101C114.13 28.291 114.276 28.5986 114.539 28.8222C114.802 29.0458 115.123 29.1856 115.532 29.1856C115.825 29.1856 116.058 29.1297 116.263 28.9899C116.467 28.8781 116.613 28.7104 116.701 28.5147H118.133C118.016 28.8502 117.87 29.1577 117.607 29.4093C117.373 29.6888 117.081 29.8845 116.73 30.0522C116.38 30.22 116 30.3038 115.562 30.3038Z" fill="var(--fill-0, black)"/>
<path id="Vector_24" d="M119.272 30.1642V24.9086H120.528L120.675 25.887C120.879 25.5515 121.142 25.272 121.493 25.0763C121.843 24.8806 122.252 24.7688 122.72 24.7688V26.1945H122.311C121.989 26.1945 121.726 26.2504 121.493 26.3343C121.259 26.4182 121.054 26.5859 120.908 26.8095C120.762 27.0332 120.704 27.3407 120.704 27.76V30.1642H119.272Z" fill="var(--fill-0, black)"/>
<path id="Vector_25" d="M6.69107 0.531131H0V30.164H6.69107V0.531131Z" fill="var(--fill-0, black)"/>
<path id="Vector_26" d="M41.4028 0.531131L37.1369 22.3644L31.8483 0.642953L31.8191 0.531131H25.654L20.5407 21.8053L16.304 0.642953L16.2748 0.531131H9.29152H9.2623L16.5962 30.0242L16.6254 30.1361H23.3749L28.4882 11.2381L33.2508 30.1361H40.3217L47.7433 0.726819L47.8017 0.531131H41.4028Z" fill="var(--fill-0, black)"/>
<path id="Vector_27" d="M65.4219 24.9363C65.1589 24.9923 64.8667 25.0202 64.5453 25.0761C64.1654 25.132 63.7564 25.16 63.2597 25.16C60.5131 25.16 58.4094 24.3493 57.0069 22.7558C55.6044 21.1623 54.8739 18.6743 54.8739 15.4035C54.8739 12.1327 55.6044 9.61671 57.0361 7.96733C58.4678 6.31795 60.5131 5.47929 63.172 5.47929C64.1947 5.47929 65.1004 5.5352 65.8601 5.67498C66.6198 5.81475 67.4964 6.0384 68.4898 6.34591L68.6651 6.40182L70.2137 1.31391L70.0968 1.28596C68.8112 0.7548 67.5548 0.419331 66.3568 0.251598C65.1589 0.0838644 63.8733 0 62.5 0C60.1917 0 58.088 0.391377 56.2472 1.14618C54.4064 1.92893 52.8578 2.99124 51.6014 4.36106C50.345 5.73089 49.3808 7.38026 48.7088 9.25328C48.0368 11.1263 47.7154 13.195 47.7154 15.3756C47.7154 17.5561 48.0368 19.5968 48.6503 21.4699C49.2932 23.3429 50.2574 24.9643 51.5138 26.3341C52.7702 27.7039 54.3772 28.7663 56.2764 29.5211C58.1756 30.2759 60.3962 30.6672 62.9383 30.6672C64.1362 30.6672 65.5679 30.5834 67.175 30.3877C68.782 30.2199 70.3598 29.8565 71.8499 29.3254L71.9668 29.2695V14.7046H65.4219V24.9363Z" fill="var(--fill-0, black)"/>
</g>
</svg>
